# xmcd
#
# Track frame offsets:
#	182
#	10350
#	23342
#	34795
#	46267
#	59947
#	72987
#	85535
#	96262
#	109870
#	119010
#	133350
#	147640
#	158390
#	170595
#	180472
#	193932
#	207747
#	218467
#	228862
#	238942
#	250662
#
# Disc length: 3471 seconds
# Revision: 3
# Processed by: cddbd v1.5.2PL0 Copyright (c) Steve Scherf et al.
# Submitted via: dBpowerAMP V12.0
#
DISCID=400d8d16
DTITLE=Various Artist - Sun Country Music Originals Vol.1
DYEAR=1987
DGENRE=Country
TTITLE0=The Ripley Cotton Choppers - Silver Bell
TTITLE1=The Ripley Cotton Choppers - Blues Waltz
TTITLE2=Earl Peterson - Boogie Blues
TTITLE3=Earl Peterson - In The Dark
TTITLE4=Howard Seratt - Troublesome Waters
TTITLE5=Howard Seratt - I Must Be Saved
TTITLE6=Hardrock Gunter - Fallen Angel
TTITLE7=Hardrock Gunter - Gonna Dance All Night
TTITLE8=Doug Poindexter - Now She Cares No More For Me
TTITLE9=Doug Poindexter - My Kind Of Carryin' On
TTITLE10=Harmonica Frank - The Great Medical Menagerist
TTITLE11=Harmonica Frank - Rockin' Chair Daddy
TTITLE12=Malcolm Yelvington - Just Rolling Along
TTITLE13=Malcolm Yelvington - Drinkin' Wine Spo Dee Odee
TTITLE14=Carl Perkins - Movie Magg
TTITLE15=Carl Perkins - Turn Around
TTITLE16=Bill Taylor - Lonely Sweetheart
TTITLE17=Bill Taylor And Smokey Jo - Split Personality
TTITLE18=Slim Rhodes - Don't Believe
TTITLE19=Slim Rhodes - Uncertain Love
TTITLE20=Charlie Feathers - I've Been Deceived
TTITLE21=Charlie Feathers - Peepin' Eyes
EXTD=
EXTT0=
EXTT1=
EXTT2=
EXTT3=
EXTT4=
EXTT5=
EXTT6=
EXTT7=
EXTT8=
EXTT9=
EXTT10=
EXTT11=
EXTT12=
EXTT13=
EXTT14=
EXTT15=
EXTT16=
EXTT17=
EXTT18=
EXTT19=
EXTT20=
EXTT21=
PLAYORDER=
